<mxfile host="app.diagrams.net" modified="2022-05-02T14:18:28.429Z" agent="5.0 (Macintosh; Intel Mac OS X 10_15_7) AppleWebKit/605.1.15 (KHTML, like Gecko) Version/15.3 Safari/605.1.15" etag="hZttseZEd8yd1AaEw_6c" version="17.5.0" type="github">
  <diagram id="maX6PPkqGkgQO3d0mOUZ" name="New">
    <mxGraphModel dx="1119" dy="565" grid="1" gridSize="10" guides="1" tooltips="1" connect="1" arrows="1" fold="1" page="1" pageScale="1" pageWidth="1169" pageHeight="827" math="1" shadow="0">
      <root>
        <mxCell id="a6acP2pozzWjvfzwrBKU-0" />
        <mxCell id="a6acP2pozzWjvfzwrBKU-1" parent="a6acP2pozzWjvfzwrBKU-0" />
        <mxCell id="7Xz_9-x67nZ5A4HUlt5y-95" value="\begin{bmatrix}&lt;br style=&quot;font-size: 12px&quot;&gt;\textbf{T}_\textbf{7}&lt;br style=&quot;font-size: 12px&quot;&gt;\end{bmatrix}" style="edgeLabel;html=1;align=center;verticalAlign=middle;resizable=0;points=[];spacing=2;fontSize=12;horizontal=1;fontColor=#FF0000;" vertex="1" connectable="0" parent="a6acP2pozzWjvfzwrBKU-1">
          <mxGeometry x="395.9975000000004" y="249.00000000000006" as="geometry">
            <mxPoint x="-6" y="-4" as="offset" />
          </mxGeometry>
        </mxCell>
        <mxCell id="7Xz_9-x67nZ5A4HUlt5y-87" value="" style="endArrow=classic;html=1;rounded=0;" edge="1" parent="a6acP2pozzWjvfzwrBKU-1">
          <mxGeometry width="50" height="50" relative="1" as="geometry">
            <mxPoint x="170" y="370" as="sourcePoint" />
            <mxPoint x="300" y="370" as="targetPoint" />
          </mxGeometry>
        </mxCell>
        <mxCell id="7Xz_9-x67nZ5A4HUlt5y-86" value="\begin{bmatrix}&lt;br style=&quot;font-size: 12px&quot;&gt;T_{ret}&lt;br style=&quot;font-size: 12px&quot;&gt;\end{bmatrix}" style="edgeLabel;html=1;align=center;verticalAlign=middle;resizable=0;points=[];spacing=2;fontSize=12;horizontal=1;" vertex="1" connectable="0" parent="a6acP2pozzWjvfzwrBKU-1">
          <mxGeometry x="228.99750000000046" y="370" as="geometry" />
        </mxCell>
        <mxCell id="7Xz_9-x67nZ5A4HUlt5y-81" value="\begin{bmatrix}&lt;br style=&quot;font-size: 12px&quot;&gt;\dot{m}_5&lt;br style=&quot;font-size: 12px&quot;&gt;\end{bmatrix}" style="edgeLabel;html=1;align=center;verticalAlign=middle;resizable=0;points=[];spacing=2;fontSize=12;horizontal=1;" vertex="1" connectable="0" parent="a6acP2pozzWjvfzwrBKU-1">
          <mxGeometry x="410.99750000000046" y="479.00000000000006" as="geometry" />
        </mxCell>
        <mxCell id="7Xz_9-x67nZ5A4HUlt5y-77" value="\begin{bmatrix}&lt;br style=&quot;font-size: 12px&quot;&gt;h_7&lt;br&gt;\end{bmatrix}" style="edgeLabel;html=1;align=center;verticalAlign=middle;resizable=0;points=[];spacing=2;fontSize=12;horizontal=1;fontColor=#0000CC;" vertex="1" connectable="0" parent="a6acP2pozzWjvfzwrBKU-1">
          <mxGeometry x="431.0014285714292" y="259" as="geometry" />
        </mxCell>
        <mxCell id="7Xz_9-x67nZ5A4HUlt5y-76" value="\begin{bmatrix}&lt;br style=&quot;font-size: 12px&quot;&gt;T_3&lt;br style=&quot;font-size: 12px&quot;&gt;\end{bmatrix}" style="edgeLabel;html=1;align=center;verticalAlign=middle;resizable=0;points=[];spacing=2;fontSize=12;horizontal=1;fontColor=#0000CC;" vertex="1" connectable="0" parent="a6acP2pozzWjvfzwrBKU-1">
          <mxGeometry x="929.0000000000003" y="227" as="geometry" />
        </mxCell>
        <mxCell id="7Xz_9-x67nZ5A4HUlt5y-15" value="\begin{bmatrix}&lt;br style=&quot;font-size: 12px&quot;&gt;h_5\\&lt;br style=&quot;font-size: 12px&quot;&gt;\dot{m}_4&lt;br style=&quot;font-size: 12px&quot;&gt;\end{bmatrix}" style="edgeLabel;html=1;align=center;verticalAlign=middle;resizable=0;points=[];spacing=2;fontSize=12;horizontal=1;" vertex="1" connectable="0" parent="a6acP2pozzWjvfzwrBKU-1">
          <mxGeometry x="678.0800000000005" y="360" as="geometry" />
        </mxCell>
        <mxCell id="7Xz_9-x67nZ5A4HUlt5y-57" value="\begin{bmatrix}&lt;br style=&quot;font-size: 12px&quot;&gt;h_6&lt;br style=&quot;font-size: 12px&quot;&gt;\end{bmatrix}" style="edgeLabel;html=1;align=center;verticalAlign=middle;resizable=0;points=[];spacing=2;fontSize=12;horizontal=1;" vertex="1" connectable="0" parent="a6acP2pozzWjvfzwrBKU-1">
          <mxGeometry x="369.99750000000046" y="490.00000000000006" as="geometry" />
        </mxCell>
        <mxCell id="7Xz_9-x67nZ5A4HUlt5y-24" value="" style="endArrow=classic;html=1;rounded=0;" edge="1" parent="a6acP2pozzWjvfzwrBKU-1">
          <mxGeometry width="50" height="50" relative="1" as="geometry">
            <mxPoint x="677.25" y="564" as="sourcePoint" />
            <mxPoint x="677" y="380" as="targetPoint" />
          </mxGeometry>
        </mxCell>
        <mxCell id="EQVUS-7tTAIxQR2iRs7y-0" value="Compressor &lt;br style=&quot;font-size: 12px&quot;&gt;stage 1&lt;br&gt;&lt;br&gt;" style="rounded=0;whiteSpace=wrap;html=1;fontSize=12;" parent="a6acP2pozzWjvfzwrBKU-1" vertex="1">
          <mxGeometry x="303.5" y="70" width="150.00000000000003" height="100" as="geometry" />
        </mxCell>
        <mxCell id="EQVUS-7tTAIxQR2iRs7y-2" value="&lt;div&gt;Compressor&amp;nbsp;&lt;/div&gt;&lt;span style=&quot;font-size: 12px&quot;&gt;&lt;div&gt;stage 2&lt;/div&gt;&lt;div&gt;&lt;br&gt;&lt;/div&gt;&lt;div&gt;&lt;br&gt;&lt;/div&gt;&lt;/span&gt;" style="rounded=0;whiteSpace=wrap;html=1;fontSize=12;align=center;" parent="a6acP2pozzWjvfzwrBKU-1" vertex="1">
          <mxGeometry x="903.5000000000002" y="70" width="150.00000000000003" height="100" as="geometry" />
        </mxCell>
        <mxCell id="EQVUS-7tTAIxQR2iRs7y-4" value="Condenser" style="rounded=0;whiteSpace=wrap;html=1;fontSize=12;" parent="a6acP2pozzWjvfzwrBKU-1" vertex="1">
          <mxGeometry x="903.5000000000002" y="320.0000000000001" width="150.00000000000003" height="100" as="geometry" />
        </mxCell>
        <mxCell id="EQVUS-7tTAIxQR2iRs7y-6" value="Condenser throttle valve" style="rounded=0;whiteSpace=wrap;html=1;fontSize=12;" parent="a6acP2pozzWjvfzwrBKU-1" vertex="1">
          <mxGeometry x="903.5000000000002" y="570" width="150.00000000000003" height="100" as="geometry" />
        </mxCell>
        <mxCell id="EQVUS-7tTAIxQR2iRs7y-8" value="Flash tank" style="rounded=0;whiteSpace=wrap;html=1;fontSize=12;" parent="a6acP2pozzWjvfzwrBKU-1" vertex="1">
          <mxGeometry x="603.5000000000002" y="570" width="150.00000000000003" height="100" as="geometry" />
        </mxCell>
        <mxCell id="EQVUS-7tTAIxQR2iRs7y-10" value="Evaporator" style="rounded=0;whiteSpace=wrap;html=1;fontSize=12;" parent="a6acP2pozzWjvfzwrBKU-1" vertex="1">
          <mxGeometry x="303.5" y="320.0000000000001" width="150.00000000000003" height="100" as="geometry" />
        </mxCell>
        <mxCell id="EQVUS-7tTAIxQR2iRs7y-12" value="Expansion valve" style="rounded=0;whiteSpace=wrap;html=1;fontSize=12;" parent="a6acP2pozzWjvfzwrBKU-1" vertex="1">
          <mxGeometry x="303.5" y="570" width="150.00000000000003" height="100" as="geometry" />
        </mxCell>
        <mxCell id="EQVUS-7tTAIxQR2iRs7y-19" value="" style="endArrow=classic;html=1;rounded=0;entryX=-0.006;entryY=0.875;entryDx=0;entryDy=0;fontSize=12;edgeStyle=orthogonalEdgeStyle;entryPerimeter=0;dashed=1;dashPattern=1 1;" parent="a6acP2pozzWjvfzwrBKU-1" target="EQVUS-7tTAIxQR2iRs7y-10" edge="1">
          <mxGeometry width="50" height="50" relative="1" as="geometry">
            <mxPoint x="252.24999999999974" y="451.25" as="sourcePoint" />
            <mxPoint x="303.50000000000034" y="420.0000000000001" as="targetPoint" />
            <Array as="points">
              <mxPoint x="252.24999999999974" y="407.50000000000006" />
            </Array>
          </mxGeometry>
        </mxCell>
        <mxCell id="EQVUS-7tTAIxQR2iRs7y-20" value="fan speed 2" style="edgeLabel;html=1;align=center;verticalAlign=middle;resizable=0;points=[];fontSize=12;" parent="EQVUS-7tTAIxQR2iRs7y-19" vertex="1" connectable="0">
          <mxGeometry x="-0.4554" y="-1" relative="1" as="geometry">
            <mxPoint x="-1" y="26" as="offset" />
          </mxGeometry>
        </mxCell>
        <mxCell id="EQVUS-7tTAIxQR2iRs7y-21" value="" style="endArrow=classic;html=1;rounded=0;entryX=1;entryY=0.25;entryDx=0;entryDy=0;fontSize=12;dashed=1;dashPattern=1 1;" parent="a6acP2pozzWjvfzwrBKU-1" target="EQVUS-7tTAIxQR2iRs7y-4" edge="1">
          <mxGeometry width="50" height="50" relative="1" as="geometry">
            <mxPoint x="1102.25" y="345" as="sourcePoint" />
            <mxPoint x="1053.5000000000002" y="369.6375000000001" as="targetPoint" />
          </mxGeometry>
        </mxCell>
        <mxCell id="EQVUS-7tTAIxQR2iRs7y-22" value="fan speed 1" style="edgeLabel;html=1;align=center;verticalAlign=middle;resizable=0;points=[];fontSize=12;" parent="EQVUS-7tTAIxQR2iRs7y-21" vertex="1" connectable="0">
          <mxGeometry x="-0.4554" y="-1" relative="1" as="geometry">
            <mxPoint x="41" y="1" as="offset" />
          </mxGeometry>
        </mxCell>
        <mxCell id="EQVUS-7tTAIxQR2iRs7y-23" value="" style="endArrow=classic;html=1;rounded=0;entryX=0;entryY=0.5;entryDx=0;entryDy=0;fontSize=12;dashed=1;dashPattern=1 1;" parent="a6acP2pozzWjvfzwrBKU-1" edge="1">
          <mxGeometry width="50" height="50" relative="1" as="geometry">
            <mxPoint x="253.50000000000028" y="619.6375000000002" as="sourcePoint" />
            <mxPoint x="303.50000000000034" y="619.6375000000002" as="targetPoint" />
          </mxGeometry>
        </mxCell>
        <mxCell id="EQVUS-7tTAIxQR2iRs7y-24" value="OD 1" style="edgeLabel;html=1;align=center;verticalAlign=middle;resizable=0;points=[];fontSize=12;" parent="EQVUS-7tTAIxQR2iRs7y-23" vertex="1" connectable="0">
          <mxGeometry x="-0.4554" y="-1" relative="1" as="geometry">
            <mxPoint x="-21" y="-1" as="offset" />
          </mxGeometry>
        </mxCell>
        <mxCell id="EQVUS-7tTAIxQR2iRs7y-25" value="" style="endArrow=classic;html=1;rounded=0;entryX=1;entryY=0.5;entryDx=0;entryDy=0;fontSize=12;dashed=1;dashPattern=1 1;" parent="a6acP2pozzWjvfzwrBKU-1" edge="1">
          <mxGeometry width="50" height="50" relative="1" as="geometry">
            <mxPoint x="1103.5" y="619.6375000000002" as="sourcePoint" />
            <mxPoint x="1053.5000000000002" y="619.6375000000002" as="targetPoint" />
          </mxGeometry>
        </mxCell>
        <mxCell id="EQVUS-7tTAIxQR2iRs7y-26" value="OD 2" style="edgeLabel;html=1;align=center;verticalAlign=middle;resizable=0;points=[];fontSize=12;" parent="EQVUS-7tTAIxQR2iRs7y-25" vertex="1" connectable="0">
          <mxGeometry x="-0.4554" y="-1" relative="1" as="geometry">
            <mxPoint x="21" y="1" as="offset" />
          </mxGeometry>
        </mxCell>
        <mxCell id="EQVUS-7tTAIxQR2iRs7y-27" value="" style="endArrow=classic;html=1;rounded=0;entryX=0.5;entryY=0;entryDx=0;entryDy=0;fontSize=12;dashed=1;dashPattern=1 1;" parent="a6acP2pozzWjvfzwrBKU-1" target="EQVUS-7tTAIxQR2iRs7y-0" edge="1">
          <mxGeometry width="50" height="50" relative="1" as="geometry">
            <mxPoint x="678.3875000000002" y="45" as="sourcePoint" />
            <mxPoint x="715.8875000000002" y="7.5" as="targetPoint" />
            <Array as="points">
              <mxPoint x="378.3875000000002" y="45" />
            </Array>
          </mxGeometry>
        </mxCell>
        <mxCell id="EQVUS-7tTAIxQR2iRs7y-28" value="" style="endArrow=classic;html=1;rounded=0;entryX=0.5;entryY=0;entryDx=0;entryDy=0;fontSize=12;dashed=1;dashPattern=1 1;" parent="a6acP2pozzWjvfzwrBKU-1" target="EQVUS-7tTAIxQR2iRs7y-2" edge="1">
          <mxGeometry width="50" height="50" relative="1" as="geometry">
            <mxPoint x="678.3875000000002" y="45" as="sourcePoint" />
            <mxPoint x="390.9999999999998" y="82.5" as="targetPoint" />
            <Array as="points">
              <mxPoint x="978.3875000000003" y="45" />
            </Array>
          </mxGeometry>
        </mxCell>
        <mxCell id="EQVUS-7tTAIxQR2iRs7y-29" value="compressor speed" style="edgeStyle=orthogonalEdgeStyle;rounded=0;orthogonalLoop=1;jettySize=auto;html=1;endArrow=none;endFill=0;fontSize=12;dashed=1;dashPattern=1 1;" parent="a6acP2pozzWjvfzwrBKU-1" edge="1">
          <mxGeometry x="-1" y="-10" relative="1" as="geometry">
            <mxPoint x="678.3875000000002" y="20" as="sourcePoint" />
            <mxPoint x="678.3875000000002" y="45" as="targetPoint" />
            <mxPoint x="10" y="-10" as="offset" />
          </mxGeometry>
        </mxCell>
        <mxCell id="EQVUS-7tTAIxQR2iRs7y-34" value="Pipe Joining &lt;br style=&quot;font-size: 12px&quot;&gt;Junction&lt;br&gt;" style="rounded=0;whiteSpace=wrap;html=1;fontSize=12;" parent="a6acP2pozzWjvfzwrBKU-1" vertex="1">
          <mxGeometry x="603.5000000000005" y="70" width="150.00000000000003" height="100" as="geometry" />
        </mxCell>
        <mxCell id="M3D5h5YDdG_GwLnv0Bj_-2" value="\begin{bmatrix}&lt;br style=&quot;font-size: 12px;&quot;&gt;h_4\\&lt;br style=&quot;font-size: 12px;&quot;&gt;p_3\\&lt;br style=&quot;font-size: 12px;&quot;&gt;T_4\\&lt;br style=&quot;font-size: 12px;&quot;&gt;\dot{m}_3&lt;br style=&quot;font-size: 12px;&quot;&gt;\end{bmatrix}" style="edgeLabel;html=1;align=center;verticalAlign=middle;resizable=0;points=[];spacing=2;fontSize=12;horizontal=1;" parent="a6acP2pozzWjvfzwrBKU-1" vertex="1" connectable="0">
          <mxGeometry x="1099.9975000000004" y="495.00000000000006" as="geometry" />
        </mxCell>
        <mxCell id="M3D5h5YDdG_GwLnv0Bj_-5" value="\begin{bmatrix}&lt;br style=&quot;font-size: 12px&quot;&gt;\dot{m}_5&lt;br style=&quot;font-size: 12px&quot;&gt;\end{bmatrix}" style="edgeLabel;html=1;align=center;verticalAlign=middle;resizable=0;points=[];spacing=2;fontSize=12;horizontal=1;" parent="a6acP2pozzWjvfzwrBKU-1" vertex="1" connectable="0">
          <mxGeometry x="526.1275000000005" y="649.0000000000002" as="geometry" />
        </mxCell>
        <mxCell id="f2Dl9Xk0tZvhv3cU8BBC-0" value="Box" style="rounded=0;whiteSpace=wrap;html=1;fontSize=12;" parent="a6acP2pozzWjvfzwrBKU-1" vertex="1">
          <mxGeometry x="11" y="320.0000000000001" width="150.00000000000003" height="100" as="geometry" />
        </mxCell>
        <mxCell id="f2Dl9Xk0tZvhv3cU8BBC-4" value="" style="endArrow=classic;html=1;rounded=0;fontSize=12;entryX=1.018;entryY=0.701;entryDx=0;entryDy=0;dashed=1;startArrow=classic;startFill=1;entryPerimeter=0;" parent="a6acP2pozzWjvfzwrBKU-1" target="f2Dl9Xk0tZvhv3cU8BBC-0" edge="1">
          <mxGeometry width="50" height="50" relative="1" as="geometry">
            <mxPoint x="300" y="390" as="sourcePoint" />
            <mxPoint x="227.24999999999977" y="301.25000000000006" as="targetPoint" />
          </mxGeometry>
        </mxCell>
        <mxCell id="f2Dl9Xk0tZvhv3cU8BBC-5" value="[heat transfer]" style="edgeLabel;html=1;align=center;verticalAlign=middle;resizable=0;points=[];fontSize=12;" parent="f2Dl9Xk0tZvhv3cU8BBC-4" vertex="1" connectable="0">
          <mxGeometry y="-4" relative="1" as="geometry">
            <mxPoint y="4" as="offset" />
          </mxGeometry>
        </mxCell>
        <mxCell id="f2Dl9Xk0tZvhv3cU8BBC-8" value="" style="endArrow=classic;html=1;rounded=0;entryX=1;entryY=0.75;entryDx=0;entryDy=0;fontSize=12;dashed=1;dashPattern=1 1;" parent="a6acP2pozzWjvfzwrBKU-1" target="EQVUS-7tTAIxQR2iRs7y-4" edge="1">
          <mxGeometry width="50" height="50" relative="1" as="geometry">
            <mxPoint x="1103.4999999999998" y="395.00000000000006" as="sourcePoint" />
            <mxPoint x="1066" y="382.13750000000005" as="targetPoint" />
          </mxGeometry>
        </mxCell>
        <mxCell id="f2Dl9Xk0tZvhv3cU8BBC-9" value="Ambient&lt;br&gt;temperature" style="edgeLabel;html=1;align=center;verticalAlign=middle;resizable=0;points=[];fontSize=12;" parent="f2Dl9Xk0tZvhv3cU8BBC-8" vertex="1" connectable="0">
          <mxGeometry x="-0.4554" y="-1" relative="1" as="geometry">
            <mxPoint x="41" y="1" as="offset" />
          </mxGeometry>
        </mxCell>
        <mxCell id="f2Dl9Xk0tZvhv3cU8BBC-10" value="" style="endArrow=classic;html=1;rounded=0;entryX=0.5;entryY=0;entryDx=0;entryDy=0;fontSize=12;dashed=1;dashPattern=1 1;" parent="a6acP2pozzWjvfzwrBKU-1" target="f2Dl9Xk0tZvhv3cU8BBC-0" edge="1">
          <mxGeometry width="50" height="50" relative="1" as="geometry">
            <mxPoint x="85.99999999999972" y="263.75" as="sourcePoint" />
            <mxPoint x="39.75" y="251.25000000000006" as="targetPoint" />
          </mxGeometry>
        </mxCell>
        <mxCell id="f2Dl9Xk0tZvhv3cU8BBC-11" value="Ambient&lt;br&gt;temperature" style="edgeLabel;html=1;align=center;verticalAlign=middle;resizable=0;points=[];fontSize=12;" parent="f2Dl9Xk0tZvhv3cU8BBC-10" vertex="1" connectable="0">
          <mxGeometry x="-0.4554" y="-1" relative="1" as="geometry">
            <mxPoint x="1" y="-25" as="offset" />
          </mxGeometry>
        </mxCell>
        <mxCell id="7Xz_9-x67nZ5A4HUlt5y-1" value="\begin{bmatrix}&lt;br style=&quot;font-size: 12px&quot;&gt;\dot{m}_2&lt;br style=&quot;font-size: 12px&quot;&gt;\end{bmatrix}" style="edgeLabel;html=1;align=center;verticalAlign=middle;resizable=0;points=[];spacing=2;fontSize=12;horizontal=1;" vertex="1" connectable="0" parent="a6acP2pozzWjvfzwrBKU-1">
          <mxGeometry x="820.0000000000003" y="103" as="geometry" />
        </mxCell>
        <mxCell id="7Xz_9-x67nZ5A4HUlt5y-4" value="" style="endArrow=classic;html=1;rounded=0;entryX=0;entryY=0.25;entryDx=0;entryDy=0;" edge="1" parent="a6acP2pozzWjvfzwrBKU-1">
          <mxGeometry width="50" height="50" relative="1" as="geometry">
            <mxPoint x="880" y="82" as="sourcePoint" />
            <mxPoint x="903.5000000000002" y="82" as="targetPoint" />
          </mxGeometry>
        </mxCell>
        <mxCell id="7Xz_9-x67nZ5A4HUlt5y-7" value="\begin{bmatrix}&lt;br style=&quot;font-size: 12px&quot;&gt;h_2&lt;br style=&quot;font-size: 12px&quot;&gt;\end{bmatrix}" style="edgeLabel;html=1;align=center;verticalAlign=middle;resizable=0;points=[];spacing=2;fontSize=12;horizontal=1;fontColor=#0000CC;" vertex="1" connectable="0" parent="a6acP2pozzWjvfzwrBKU-1">
          <mxGeometry x="813.0000000000003" y="131" as="geometry" />
        </mxCell>
        <mxCell id="7Xz_9-x67nZ5A4HUlt5y-8" value="" style="endArrow=classic;html=1;rounded=0;" edge="1" parent="a6acP2pozzWjvfzwrBKU-1">
          <mxGeometry width="50" height="50" relative="1" as="geometry">
            <mxPoint x="760" y="130" as="sourcePoint" />
            <mxPoint x="800" y="130" as="targetPoint" />
          </mxGeometry>
        </mxCell>
        <mxCell id="7Xz_9-x67nZ5A4HUlt5y-9" value="" style="endArrow=classic;html=1;rounded=0;" edge="1" parent="a6acP2pozzWjvfzwrBKU-1">
          <mxGeometry width="50" height="50" relative="1" as="geometry">
            <mxPoint x="895" y="103" as="sourcePoint" />
            <mxPoint x="835" y="103" as="targetPoint" />
          </mxGeometry>
        </mxCell>
        <mxCell id="7Xz_9-x67nZ5A4HUlt5y-10" value="\begin{bmatrix}&lt;br style=&quot;font-size: 12px&quot;&gt;p_1&lt;br style=&quot;font-size: 12px&quot;&gt;\end{bmatrix}" style="edgeLabel;html=1;align=center;verticalAlign=middle;resizable=0;points=[];spacing=2;fontSize=12;horizontal=1;" vertex="1" connectable="0" parent="a6acP2pozzWjvfzwrBKU-1">
          <mxGeometry x="830.0000000000003" y="160" as="geometry" />
        </mxCell>
        <mxCell id="7Xz_9-x67nZ5A4HUlt5y-11" value="" style="endArrow=classic;html=1;rounded=0;" edge="1" parent="a6acP2pozzWjvfzwrBKU-1">
          <mxGeometry width="50" height="50" relative="1" as="geometry">
            <mxPoint x="805" y="103" as="sourcePoint" />
            <mxPoint x="755" y="103" as="targetPoint" />
          </mxGeometry>
        </mxCell>
        <mxCell id="7Xz_9-x67nZ5A4HUlt5y-12" value="\begin{bmatrix}&lt;br style=&quot;font-size: 12px&quot;&gt;T_1&lt;br&gt;\end{bmatrix}" style="edgeLabel;html=1;align=center;verticalAlign=middle;resizable=0;points=[];spacing=2;fontSize=12;horizontal=1;fontColor=#0000CC;" vertex="1" connectable="0" parent="a6acP2pozzWjvfzwrBKU-1">
          <mxGeometry x="503.00142857142913" y="130" as="geometry" />
        </mxCell>
        <mxCell id="7Xz_9-x67nZ5A4HUlt5y-13" value="\begin{bmatrix}&lt;br style=&quot;font-size: 12px&quot;&gt;h_1\\&lt;br style=&quot;font-size: 12px&quot;&gt;\dot{m}_1&lt;br style=&quot;font-size: 12px&quot;&gt;\end{bmatrix}" style="edgeLabel;html=1;align=center;verticalAlign=middle;resizable=0;points=[];spacing=2;fontSize=12;horizontal=1;" vertex="1" connectable="0" parent="a6acP2pozzWjvfzwrBKU-1">
          <mxGeometry x="540.0014285714291" y="90" as="geometry" />
        </mxCell>
        <mxCell id="7Xz_9-x67nZ5A4HUlt5y-14" value="" style="endArrow=classic;html=1;rounded=0;" edge="1" parent="a6acP2pozzWjvfzwrBKU-1">
          <mxGeometry width="50" height="50" relative="1" as="geometry">
            <mxPoint x="560" y="90" as="sourcePoint" />
            <mxPoint x="600" y="90" as="targetPoint" />
          </mxGeometry>
        </mxCell>
        <mxCell id="7Xz_9-x67nZ5A4HUlt5y-16" value="" style="endArrow=classic;html=1;rounded=0;" edge="1" parent="a6acP2pozzWjvfzwrBKU-1">
          <mxGeometry width="50" height="50" relative="1" as="geometry">
            <mxPoint x="679.08" y="340" as="sourcePoint" />
            <mxPoint x="679.08" y="176" as="targetPoint" />
          </mxGeometry>
        </mxCell>
        <mxCell id="7Xz_9-x67nZ5A4HUlt5y-17" value="" style="endArrow=classic;html=1;rounded=0;" edge="1" parent="a6acP2pozzWjvfzwrBKU-1">
          <mxGeometry width="50" height="50" relative="1" as="geometry">
            <mxPoint x="456" y="130" as="sourcePoint" />
            <mxPoint x="490" y="130" as="targetPoint" />
          </mxGeometry>
        </mxCell>
        <mxCell id="7Xz_9-x67nZ5A4HUlt5y-18" value="" style="endArrow=classic;html=1;rounded=0;" edge="1" parent="a6acP2pozzWjvfzwrBKU-1">
          <mxGeometry width="50" height="50" relative="1" as="geometry">
            <mxPoint x="810" y="580" as="sourcePoint" />
            <mxPoint x="810" y="160" as="targetPoint" />
            <Array as="points">
              <mxPoint x="790" y="580" />
              <mxPoint x="790" y="550" />
              <mxPoint x="730" y="550" />
              <mxPoint x="730" y="190" />
              <mxPoint x="780" y="190" />
              <mxPoint x="780" y="160" />
            </Array>
          </mxGeometry>
        </mxCell>
        <mxCell id="7Xz_9-x67nZ5A4HUlt5y-19" value="" style="endArrow=classic;html=1;rounded=0;jumpStyle=arc;jumpSize=10;" edge="1" parent="a6acP2pozzWjvfzwrBKU-1">
          <mxGeometry width="50" height="50" relative="1" as="geometry">
            <mxPoint x="750" y="550" as="sourcePoint" />
            <mxPoint x="560" y="590" as="targetPoint" />
            <Array as="points">
              <mxPoint x="580" y="550" />
              <mxPoint x="580" y="590" />
            </Array>
          </mxGeometry>
        </mxCell>
        <mxCell id="7Xz_9-x67nZ5A4HUlt5y-20" value="\begin{bmatrix}&lt;br style=&quot;font-size: 12px&quot;&gt;p_1&lt;br style=&quot;font-size: 12px&quot;&gt;\end{bmatrix}" style="edgeLabel;html=1;align=center;verticalAlign=middle;resizable=0;points=[];spacing=2;fontSize=12;horizontal=1;" vertex="1" connectable="0" parent="a6acP2pozzWjvfzwrBKU-1">
          <mxGeometry x="850.0000000000003" y="575" as="geometry">
            <mxPoint x="-25" y="5" as="offset" />
          </mxGeometry>
        </mxCell>
        <mxCell id="7Xz_9-x67nZ5A4HUlt5y-21" value="" style="endArrow=classic;html=1;rounded=0;jumpStyle=arc;jumpSize=10;" edge="1" parent="a6acP2pozzWjvfzwrBKU-1">
          <mxGeometry width="50" height="50" relative="1" as="geometry">
            <mxPoint x="900" y="580" as="sourcePoint" />
            <mxPoint x="840" y="580" as="targetPoint" />
          </mxGeometry>
        </mxCell>
        <mxCell id="7Xz_9-x67nZ5A4HUlt5y-22" value="" style="endArrow=classic;html=1;rounded=0;" edge="1" parent="a6acP2pozzWjvfzwrBKU-1">
          <mxGeometry width="50" height="50" relative="1" as="geometry">
            <mxPoint x="850" y="160" as="sourcePoint" />
            <mxPoint x="900" y="160" as="targetPoint" />
          </mxGeometry>
        </mxCell>
        <mxCell id="7Xz_9-x67nZ5A4HUlt5y-26" value="\begin{bmatrix}&lt;br style=&quot;font-size: 12px&quot;&gt;p_1&lt;br style=&quot;font-size: 12px&quot;&gt;\end{bmatrix}" style="edgeLabel;html=1;align=center;verticalAlign=middle;resizable=0;points=[];spacing=2;fontSize=12;horizontal=1;" vertex="1" connectable="0" parent="a6acP2pozzWjvfzwrBKU-1">
          <mxGeometry x="545.4400000000003" y="589" as="geometry" />
        </mxCell>
        <mxCell id="7Xz_9-x67nZ5A4HUlt5y-27" value="" style="endArrow=classic;html=1;rounded=0;jumpStyle=arc;jumpSize=10;" edge="1" parent="a6acP2pozzWjvfzwrBKU-1">
          <mxGeometry width="50" height="50" relative="1" as="geometry">
            <mxPoint x="530" y="590" as="sourcePoint" />
            <mxPoint x="460" y="590" as="targetPoint" />
          </mxGeometry>
        </mxCell>
        <mxCell id="7Xz_9-x67nZ5A4HUlt5y-28" value="" style="endArrow=classic;html=1;rounded=0;" edge="1" parent="a6acP2pozzWjvfzwrBKU-1">
          <mxGeometry width="50" height="50" relative="1" as="geometry">
            <mxPoint x="460" y="90" as="sourcePoint" />
            <mxPoint x="520" y="90" as="targetPoint" />
          </mxGeometry>
        </mxCell>
        <mxCell id="7Xz_9-x67nZ5A4HUlt5y-29" value="\begin{bmatrix}&lt;br style=&quot;font-size: 12px&quot;&gt;\dot{m}_2\\&lt;br&gt;h_3&lt;br style=&quot;font-size: 12px&quot;&gt;\end{bmatrix}" style="edgeLabel;html=1;align=center;verticalAlign=middle;resizable=0;points=[];spacing=2;fontSize=12;horizontal=1;" vertex="1" connectable="0" parent="a6acP2pozzWjvfzwrBKU-1">
          <mxGeometry x="978.9200000000003" y="240" as="geometry" />
        </mxCell>
        <mxCell id="7Xz_9-x67nZ5A4HUlt5y-30" value="" style="endArrow=classic;html=1;rounded=0;" edge="1" parent="a6acP2pozzWjvfzwrBKU-1">
          <mxGeometry width="50" height="50" relative="1" as="geometry">
            <mxPoint x="978.92" y="175" as="sourcePoint" />
            <mxPoint x="978.92" y="215" as="targetPoint" />
          </mxGeometry>
        </mxCell>
        <mxCell id="7Xz_9-x67nZ5A4HUlt5y-32" value="" style="endArrow=classic;html=1;rounded=0;" edge="1" parent="a6acP2pozzWjvfzwrBKU-1">
          <mxGeometry width="50" height="50" relative="1" as="geometry">
            <mxPoint x="978.92" y="265" as="sourcePoint" />
            <mxPoint x="977.92" y="315" as="targetPoint" />
          </mxGeometry>
        </mxCell>
        <mxCell id="7Xz_9-x67nZ5A4HUlt5y-33" value="\begin{bmatrix}&lt;br style=&quot;font-size: 12px&quot;&gt;\dot{m}_3&lt;br style=&quot;font-size: 12px&quot;&gt;\end{bmatrix}" style="edgeLabel;html=1;align=center;verticalAlign=middle;resizable=0;points=[];spacing=2;fontSize=12;horizontal=1;" vertex="1" connectable="0" parent="a6acP2pozzWjvfzwrBKU-1">
          <mxGeometry x="949.9975000000004" y="490.00000000000006" as="geometry" />
        </mxCell>
        <mxCell id="7Xz_9-x67nZ5A4HUlt5y-34" value="" style="endArrow=classic;html=1;rounded=0;exitX=0.312;exitY=1.028;exitDx=0;exitDy=0;exitPerimeter=0;" edge="1" parent="a6acP2pozzWjvfzwrBKU-1" source="EQVUS-7tTAIxQR2iRs7y-4">
          <mxGeometry width="50" height="50" relative="1" as="geometry">
            <mxPoint x="949.9999999999999" y="430" as="sourcePoint" />
            <mxPoint x="949.9999999999999" y="480" as="targetPoint" />
          </mxGeometry>
        </mxCell>
        <mxCell id="7Xz_9-x67nZ5A4HUlt5y-35" value="" style="endArrow=classic;html=1;rounded=0;" edge="1" parent="a6acP2pozzWjvfzwrBKU-1">
          <mxGeometry width="50" height="50" relative="1" as="geometry">
            <mxPoint x="949" y="500" as="sourcePoint" />
            <mxPoint x="949.1599999999999" y="567" as="targetPoint" />
          </mxGeometry>
        </mxCell>
        <mxCell id="7Xz_9-x67nZ5A4HUlt5y-36" value="\begin{bmatrix}\&lt;br style=&quot;font-size: 12px&quot;&gt;p_2\\&lt;br style=&quot;font-size: 12px&quot;&gt;\end{bmatrix}" style="edgeLabel;html=1;align=center;verticalAlign=middle;resizable=0;points=[];spacing=2;fontSize=12;horizontal=1;" vertex="1" connectable="0" parent="a6acP2pozzWjvfzwrBKU-1">
          <mxGeometry x="1021.3975000000004" y="245" as="geometry" />
        </mxCell>
        <mxCell id="7Xz_9-x67nZ5A4HUlt5y-38" value="" style="endArrow=classic;html=1;rounded=0;entryX=0.634;entryY=1.02;entryDx=0;entryDy=0;entryPerimeter=0;" edge="1" parent="a6acP2pozzWjvfzwrBKU-1">
          <mxGeometry width="50" height="50" relative="1" as="geometry">
            <mxPoint x="1020.4" y="230" as="sourcePoint" />
            <mxPoint x="1020.0000000000001" y="172" as="targetPoint" />
          </mxGeometry>
        </mxCell>
        <mxCell id="7Xz_9-x67nZ5A4HUlt5y-41" value="" style="endArrow=classic;html=1;rounded=0;" edge="1" parent="a6acP2pozzWjvfzwrBKU-1">
          <mxGeometry width="50" height="50" relative="1" as="geometry">
            <mxPoint x="1021.4" y="320" as="sourcePoint" />
            <mxPoint x="1020.4" y="260" as="targetPoint" />
          </mxGeometry>
        </mxCell>
        <mxCell id="7Xz_9-x67nZ5A4HUlt5y-42" value="\begin{bmatrix}&lt;br style=&quot;font-size: 12px&quot;&gt;\textbf{p}_\textbf{3}&lt;br style=&quot;font-size: 12px&quot;&gt;\end{bmatrix}" style="edgeLabel;html=1;align=center;verticalAlign=middle;resizable=0;points=[];spacing=2;fontSize=12;horizontal=1;fontColor=#FF0000;" vertex="1" connectable="0" parent="a6acP2pozzWjvfzwrBKU-1">
          <mxGeometry x="1004.9975000000004" y="493.00000000000006" as="geometry">
            <mxPoint x="-6" y="-4" as="offset" />
          </mxGeometry>
        </mxCell>
        <mxCell id="7Xz_9-x67nZ5A4HUlt5y-43" value="" style="endArrow=classic;html=1;rounded=0;entryX=0.637;entryY=0;entryDx=0;entryDy=0;entryPerimeter=0;" edge="1" parent="a6acP2pozzWjvfzwrBKU-1" target="EQVUS-7tTAIxQR2iRs7y-6">
          <mxGeometry width="50" height="50" relative="1" as="geometry">
            <mxPoint x="999.1600000000002" y="503" as="sourcePoint" />
            <mxPoint x="999" y="560" as="targetPoint" />
          </mxGeometry>
        </mxCell>
        <mxCell id="7Xz_9-x67nZ5A4HUlt5y-44" value="" style="endArrow=classic;html=1;rounded=0;entryX=0.634;entryY=1.003;entryDx=0;entryDy=0;entryPerimeter=0;" edge="1" parent="a6acP2pozzWjvfzwrBKU-1" target="EQVUS-7tTAIxQR2iRs7y-4">
          <mxGeometry width="50" height="50" relative="1" as="geometry">
            <mxPoint x="999.1600000000002" y="480" as="sourcePoint" />
            <mxPoint x="1010" y="430" as="targetPoint" />
          </mxGeometry>
        </mxCell>
        <mxCell id="7Xz_9-x67nZ5A4HUlt5y-45" value="\begin{bmatrix}&lt;br style=&quot;font-size: 12px&quot;&gt;\textbf{T}_\textbf{2}&lt;br style=&quot;font-size: 12px&quot;&gt;\end{bmatrix}" style="edgeLabel;html=1;align=center;verticalAlign=middle;resizable=0;points=[];spacing=2;fontSize=12;horizontal=1;fontColor=#FF0000;" vertex="1" connectable="0" parent="a6acP2pozzWjvfzwrBKU-1">
          <mxGeometry x="865.9975000000004" y="85.00000000000006" as="geometry">
            <mxPoint x="-6" y="-4" as="offset" />
          </mxGeometry>
        </mxCell>
        <mxCell id="7Xz_9-x67nZ5A4HUlt5y-47" value="" style="endArrow=classic;html=1;rounded=0;jumpStyle=arc;jumpSize=10;" edge="1" parent="a6acP2pozzWjvfzwrBKU-1">
          <mxGeometry width="50" height="50" relative="1" as="geometry">
            <mxPoint x="790" y="580" as="sourcePoint" />
            <mxPoint x="760" y="580" as="targetPoint" />
          </mxGeometry>
        </mxCell>
        <mxCell id="7Xz_9-x67nZ5A4HUlt5y-48" value="\begin{bmatrix}&lt;br style=&quot;font-size: 12px&quot;&gt;\dot{m}_3&lt;br style=&quot;font-size: 12px&quot;&gt;\end{bmatrix}" style="edgeLabel;html=1;align=center;verticalAlign=middle;resizable=0;points=[];spacing=2;fontSize=12;horizontal=1;" vertex="1" connectable="0" parent="a6acP2pozzWjvfzwrBKU-1">
          <mxGeometry x="850.0000000000003" y="615" as="geometry">
            <mxPoint x="-25" y="5" as="offset" />
          </mxGeometry>
        </mxCell>
        <mxCell id="7Xz_9-x67nZ5A4HUlt5y-49" value="" style="endArrow=classic;html=1;rounded=0;jumpStyle=arc;jumpSize=10;" edge="1" parent="a6acP2pozzWjvfzwrBKU-1">
          <mxGeometry width="50" height="50" relative="1" as="geometry">
            <mxPoint x="950" y="520" as="sourcePoint" />
            <mxPoint x="850" y="620" as="targetPoint" />
            <Array as="points">
              <mxPoint x="880" y="520" />
              <mxPoint x="880" y="550" />
              <mxPoint x="880" y="620" />
            </Array>
          </mxGeometry>
        </mxCell>
        <mxCell id="7Xz_9-x67nZ5A4HUlt5y-51" value="" style="endArrow=classic;html=1;rounded=0;jumpStyle=arc;jumpSize=10;" edge="1" parent="a6acP2pozzWjvfzwrBKU-1">
          <mxGeometry width="50" height="50" relative="1" as="geometry">
            <mxPoint x="807" y="620" as="sourcePoint" />
            <mxPoint x="757" y="620" as="targetPoint" />
          </mxGeometry>
        </mxCell>
        <mxCell id="7Xz_9-x67nZ5A4HUlt5y-52" value="" style="endArrow=classic;html=1;rounded=0;jumpStyle=arc;jumpSize=10;" edge="1" parent="a6acP2pozzWjvfzwrBKU-1">
          <mxGeometry width="50" height="50" relative="1" as="geometry">
            <mxPoint x="599.19" y="650" as="sourcePoint" />
            <mxPoint x="547.69" y="650" as="targetPoint" />
          </mxGeometry>
        </mxCell>
        <mxCell id="7Xz_9-x67nZ5A4HUlt5y-53" value="" style="endArrow=classic;html=1;rounded=0;jumpStyle=arc;jumpSize=10;" edge="1" parent="a6acP2pozzWjvfzwrBKU-1">
          <mxGeometry width="50" height="50" relative="1" as="geometry">
            <mxPoint x="509.19" y="649.33" as="sourcePoint" />
            <mxPoint x="457.69" y="649.33" as="targetPoint" />
          </mxGeometry>
        </mxCell>
        <mxCell id="7Xz_9-x67nZ5A4HUlt5y-54" value="\begin{bmatrix}&lt;br style=&quot;font-size: 12px&quot;&gt;h_6&lt;br style=&quot;font-size: 12px&quot;&gt;\end{bmatrix}" style="edgeLabel;html=1;align=center;verticalAlign=middle;resizable=0;points=[];spacing=2;fontSize=12;horizontal=1;" vertex="1" connectable="0" parent="a6acP2pozzWjvfzwrBKU-1">
          <mxGeometry x="529.1275000000005" y="619.0000000000002" as="geometry" />
        </mxCell>
        <mxCell id="7Xz_9-x67nZ5A4HUlt5y-55" value="" style="endArrow=classic;html=1;rounded=0;jumpStyle=arc;jumpSize=10;" edge="1" parent="a6acP2pozzWjvfzwrBKU-1">
          <mxGeometry width="50" height="50" relative="1" as="geometry">
            <mxPoint x="598.5" y="619.67" as="sourcePoint" />
            <mxPoint x="547" y="619.67" as="targetPoint" />
          </mxGeometry>
        </mxCell>
        <mxCell id="7Xz_9-x67nZ5A4HUlt5y-56" value="" style="endArrow=classic;html=1;rounded=0;jumpStyle=arc;jumpSize=10;" edge="1" parent="a6acP2pozzWjvfzwrBKU-1">
          <mxGeometry width="50" height="50" relative="1" as="geometry">
            <mxPoint x="516" y="619.67" as="sourcePoint" />
            <mxPoint x="370" y="500" as="targetPoint" />
            <Array as="points">
              <mxPoint x="480" y="620" />
              <mxPoint x="480" y="550" />
              <mxPoint x="370" y="550" />
            </Array>
          </mxGeometry>
        </mxCell>
        <mxCell id="7Xz_9-x67nZ5A4HUlt5y-58" value="" style="endArrow=classic;html=1;rounded=0;" edge="1" parent="a6acP2pozzWjvfzwrBKU-1">
          <mxGeometry width="50" height="50" relative="1" as="geometry">
            <mxPoint x="370" y="480" as="sourcePoint" />
            <mxPoint x="370" y="430" as="targetPoint" />
          </mxGeometry>
        </mxCell>
        <mxCell id="7Xz_9-x67nZ5A4HUlt5y-60" value="" style="endArrow=classic;html=1;rounded=0;jumpStyle=arc;jumpSize=8;" edge="1" parent="a6acP2pozzWjvfzwrBKU-1">
          <mxGeometry width="50" height="50" relative="1" as="geometry">
            <mxPoint x="730" y="190" as="sourcePoint" />
            <mxPoint x="550" y="160" as="targetPoint" />
            <Array as="points">
              <mxPoint x="570" y="190" />
              <mxPoint x="570" y="160" />
            </Array>
          </mxGeometry>
        </mxCell>
        <mxCell id="7Xz_9-x67nZ5A4HUlt5y-61" value="\begin{bmatrix}&lt;br&gt;p_1&lt;br&gt;\end{bmatrix}" style="edgeLabel;html=1;align=center;verticalAlign=middle;resizable=0;points=[];spacing=2;fontSize=12;horizontal=1;" vertex="1" connectable="0" parent="a6acP2pozzWjvfzwrBKU-1">
          <mxGeometry x="538.0014285714292" y="160" as="geometry">
            <mxPoint x="-3" y="-1" as="offset" />
          </mxGeometry>
        </mxCell>
        <mxCell id="7Xz_9-x67nZ5A4HUlt5y-62" value="" style="endArrow=classic;html=1;rounded=0;" edge="1" parent="a6acP2pozzWjvfzwrBKU-1">
          <mxGeometry width="50" height="50" relative="1" as="geometry">
            <mxPoint x="460" y="90" as="sourcePoint" />
            <mxPoint x="520" y="90" as="targetPoint" />
          </mxGeometry>
        </mxCell>
        <mxCell id="7Xz_9-x67nZ5A4HUlt5y-63" value="" style="endArrow=classic;html=1;rounded=0;" edge="1" parent="a6acP2pozzWjvfzwrBKU-1">
          <mxGeometry width="50" height="50" relative="1" as="geometry">
            <mxPoint x="520" y="160" as="sourcePoint" />
            <mxPoint x="460" y="160" as="targetPoint" />
          </mxGeometry>
        </mxCell>
        <mxCell id="7Xz_9-x67nZ5A4HUlt5y-64" value="\begin{bmatrix}&lt;br style=&quot;font-size: 12px&quot;&gt;\dot{m}_1&lt;br style=&quot;font-size: 12px&quot;&gt;\end{bmatrix}" style="edgeLabel;html=1;align=center;verticalAlign=middle;resizable=0;points=[];spacing=2;fontSize=12;horizontal=1;" vertex="1" connectable="0" parent="a6acP2pozzWjvfzwrBKU-1">
          <mxGeometry x="318.99750000000046" y="245" as="geometry" />
        </mxCell>
        <mxCell id="7Xz_9-x67nZ5A4HUlt5y-65" value="" style="endArrow=classic;html=1;rounded=0;" edge="1" parent="a6acP2pozzWjvfzwrBKU-1">
          <mxGeometry width="50" height="50" relative="1" as="geometry">
            <mxPoint x="319.33000000000004" y="173" as="sourcePoint" />
            <mxPoint x="319" y="230" as="targetPoint" />
          </mxGeometry>
        </mxCell>
        <mxCell id="7Xz_9-x67nZ5A4HUlt5y-66" value="" style="endArrow=classic;html=1;rounded=0;" edge="1" parent="a6acP2pozzWjvfzwrBKU-1">
          <mxGeometry width="50" height="50" relative="1" as="geometry">
            <mxPoint x="319" y="260" as="sourcePoint" />
            <mxPoint x="319" y="317" as="targetPoint" />
          </mxGeometry>
        </mxCell>
        <mxCell id="7Xz_9-x67nZ5A4HUlt5y-69" value="" style="endArrow=classic;html=1;rounded=0;" edge="1" parent="a6acP2pozzWjvfzwrBKU-1">
          <mxGeometry width="50" height="50" relative="1" as="geometry">
            <mxPoint x="390" y="230" as="sourcePoint" />
            <mxPoint x="390" y="170" as="targetPoint" />
          </mxGeometry>
        </mxCell>
        <mxCell id="7Xz_9-x67nZ5A4HUlt5y-71" value="" style="endArrow=classic;html=1;rounded=0;" edge="1" parent="a6acP2pozzWjvfzwrBKU-1">
          <mxGeometry width="50" height="50" relative="1" as="geometry">
            <mxPoint x="300" y="340" as="sourcePoint" />
            <mxPoint x="170" y="340" as="targetPoint" />
          </mxGeometry>
        </mxCell>
        <mxCell id="7Xz_9-x67nZ5A4HUlt5y-72" value="\begin{bmatrix}&lt;br style=&quot;font-size: 12px&quot;&gt;T_{sup}&lt;br style=&quot;font-size: 12px&quot;&gt;\end{bmatrix}" style="edgeLabel;html=1;align=center;verticalAlign=middle;resizable=0;points=[];spacing=2;fontSize=12;horizontal=1;" vertex="1" connectable="0" parent="a6acP2pozzWjvfzwrBKU-1">
          <mxGeometry x="229.99750000000046" y="340" as="geometry" />
        </mxCell>
        <mxCell id="7Xz_9-x67nZ5A4HUlt5y-73" value="" style="endArrow=classic;html=1;rounded=0;" edge="1" parent="a6acP2pozzWjvfzwrBKU-1">
          <mxGeometry width="50" height="50" relative="1" as="geometry">
            <mxPoint x="430" y="316" as="sourcePoint" />
            <mxPoint x="430.13" y="270" as="targetPoint" />
          </mxGeometry>
        </mxCell>
        <mxCell id="7Xz_9-x67nZ5A4HUlt5y-75" value="" style="endArrow=classic;html=1;rounded=0;" edge="1" parent="a6acP2pozzWjvfzwrBKU-1">
          <mxGeometry width="50" height="50" relative="1" as="geometry">
            <mxPoint x="929.9999999999999" y="175" as="sourcePoint" />
            <mxPoint x="929.9999999999999" y="215" as="targetPoint" />
          </mxGeometry>
        </mxCell>
        <mxCell id="7Xz_9-x67nZ5A4HUlt5y-78" value="\begin{bmatrix}&lt;br style=&quot;font-size: 12px&quot;&gt;h_4\\&lt;br&gt;\dot{m}_3&lt;br style=&quot;font-size: 12px&quot;&gt;\end{bmatrix}" style="edgeLabel;html=1;align=center;verticalAlign=middle;resizable=0;points=[];spacing=2;fontSize=12;horizontal=1;" vertex="1" connectable="0" parent="a6acP2pozzWjvfzwrBKU-1">
          <mxGeometry x="830.0000000000003" y="690" as="geometry">
            <mxPoint x="-25" y="5" as="offset" />
          </mxGeometry>
        </mxCell>
        <mxCell id="7Xz_9-x67nZ5A4HUlt5y-80" value="" style="endArrow=classic;html=1;rounded=0;jumpStyle=arc;jumpSize=10;" edge="1" parent="a6acP2pozzWjvfzwrBKU-1">
          <mxGeometry width="50" height="50" relative="1" as="geometry">
            <mxPoint x="503" y="649" as="sourcePoint" />
            <mxPoint x="410" y="490" as="targetPoint" />
            <Array as="points">
              <mxPoint x="503" y="649" />
              <mxPoint x="500" y="520" />
              <mxPoint x="410" y="520" />
            </Array>
          </mxGeometry>
        </mxCell>
        <mxCell id="7Xz_9-x67nZ5A4HUlt5y-82" value="" style="endArrow=classic;html=1;rounded=0;" edge="1" parent="a6acP2pozzWjvfzwrBKU-1">
          <mxGeometry width="50" height="50" relative="1" as="geometry">
            <mxPoint x="410" y="470" as="sourcePoint" />
            <mxPoint x="410" y="430" as="targetPoint" />
          </mxGeometry>
        </mxCell>
        <mxCell id="7Xz_9-x67nZ5A4HUlt5y-83" value="\begin{bmatrix}&lt;br style=&quot;font-size: 12px&quot;&gt;p_4&lt;br style=&quot;font-size: 12px&quot;&gt;\end{bmatrix}" style="edgeLabel;html=1;align=center;verticalAlign=middle;resizable=0;points=[];spacing=2;fontSize=12;horizontal=1;" vertex="1" connectable="0" parent="a6acP2pozzWjvfzwrBKU-1">
          <mxGeometry x="330.0000000000003" y="495" as="geometry" />
        </mxCell>
        <mxCell id="7Xz_9-x67nZ5A4HUlt5y-84" value="" style="endArrow=classic;html=1;rounded=0;" edge="1" parent="a6acP2pozzWjvfzwrBKU-1">
          <mxGeometry width="50" height="50" relative="1" as="geometry">
            <mxPoint x="329.9999999999999" y="566" as="sourcePoint" />
            <mxPoint x="330" y="510" as="targetPoint" />
          </mxGeometry>
        </mxCell>
        <mxCell id="7Xz_9-x67nZ5A4HUlt5y-85" value="" style="endArrow=classic;html=1;rounded=0;" edge="1" parent="a6acP2pozzWjvfzwrBKU-1">
          <mxGeometry width="50" height="50" relative="1" as="geometry">
            <mxPoint x="329.56" y="486" as="sourcePoint" />
            <mxPoint x="329.56" y="430" as="targetPoint" />
          </mxGeometry>
        </mxCell>
        <mxCell id="7Xz_9-x67nZ5A4HUlt5y-88" value="&lt;font color=&quot;#000000&quot;&gt;p5 requires h7 which requires T7 which requires p5 AND T7..&lt;/font&gt;" style="shape=callout;whiteSpace=wrap;html=1;perimeter=calloutPerimeter;fontColor=#0000CC;position2=0.67;base=10;" vertex="1" parent="a6acP2pozzWjvfzwrBKU-1">
          <mxGeometry x="130" y="131" width="120" height="80" as="geometry" />
        </mxCell>
        <mxCell id="7Xz_9-x67nZ5A4HUlt5y-89" value="" style="endArrow=classic;html=1;rounded=0;fontColor=#000000;jumpStyle=arc;jumpSize=8;entryX=0.833;entryY=0.863;entryDx=0;entryDy=0;entryPerimeter=0;dashed=1;dashPattern=1 4;" edge="1" parent="a6acP2pozzWjvfzwrBKU-1" target="7Xz_9-x67nZ5A4HUlt5y-88">
          <mxGeometry width="50" height="50" relative="1" as="geometry">
            <mxPoint x="260" y="240" as="sourcePoint" />
            <mxPoint x="313" y="220" as="targetPoint" />
          </mxGeometry>
        </mxCell>
        <mxCell id="7Xz_9-x67nZ5A4HUlt5y-90" value="\begin{bmatrix}&lt;br style=&quot;font-size: 12px&quot;&gt;p_5\\&lt;br style=&quot;font-size: 12px&quot;&gt;T_7&lt;br style=&quot;font-size: 12px&quot;&gt;\end{bmatrix}" style="edgeLabel;html=1;align=center;verticalAlign=middle;resizable=0;points=[];spacing=2;fontSize=12;horizontal=1;" vertex="1" connectable="0" parent="a6acP2pozzWjvfzwrBKU-1">
          <mxGeometry x="509.9975000000004" y="227" as="geometry" />
        </mxCell>
        <mxCell id="7Xz_9-x67nZ5A4HUlt5y-91" value="\begin{bmatrix}&lt;br style=&quot;font-size: 12px&quot;&gt;p_5\\&lt;br style=&quot;font-size: 12px&quot;&gt;T_7&lt;br style=&quot;font-size: 12px&quot;&gt;\end{bmatrix}" style="edgeLabel;html=1;align=center;verticalAlign=middle;resizable=0;points=[];spacing=2;fontSize=12;horizontal=1;" vertex="1" connectable="0" parent="a6acP2pozzWjvfzwrBKU-1">
          <mxGeometry x="354.1275000000004" y="246" as="geometry" />
        </mxCell>
        <mxCell id="7Xz_9-x67nZ5A4HUlt5y-92" value="" style="endArrow=classic;html=1;rounded=0;" edge="1" parent="a6acP2pozzWjvfzwrBKU-1">
          <mxGeometry width="50" height="50" relative="1" as="geometry">
            <mxPoint x="353.9999999999999" y="317" as="sourcePoint" />
            <mxPoint x="354.13" y="271" as="targetPoint" />
          </mxGeometry>
        </mxCell>
        <mxCell id="7Xz_9-x67nZ5A4HUlt5y-93" value="" style="endArrow=classic;html=1;rounded=0;" edge="1" parent="a6acP2pozzWjvfzwrBKU-1">
          <mxGeometry width="50" height="50" relative="1" as="geometry">
            <mxPoint x="354.13" y="221" as="sourcePoint" />
            <mxPoint x="354.13" y="171" as="targetPoint" />
          </mxGeometry>
        </mxCell>
        <mxCell id="7Xz_9-x67nZ5A4HUlt5y-94" value="" style="endArrow=classic;html=1;rounded=0;" edge="1" parent="a6acP2pozzWjvfzwrBKU-1">
          <mxGeometry width="50" height="50" relative="1" as="geometry">
            <mxPoint x="390" y="260" as="sourcePoint" />
            <mxPoint x="390" y="310" as="targetPoint" />
          </mxGeometry>
        </mxCell>
      </root>
    </mxGraphModel>
  </diagram>
</mxfile>
